<svg width="24" height="24" viewBox="0 0 24 24" fill="none" xmlns="http://www.w3.org/2000/svg">
<path d="M15.9516 14.6737C15.9516 12.4641 14.1604 10.6729 11.9508 10.6729C9.74147 10.6729 7.95023 12.4642 7.95023 14.6737C7.95023 16.8832 9.74147 18.6745 11.9508 18.6745C14.1604 18.6745 15.9516 16.8832 15.9516 14.6737ZM16.9116 14.6737C16.9116 17.4134 14.6906 19.6345 11.9508 19.6345C9.21127 19.6345 6.99023 17.4134 6.99023 14.6737C6.99023 11.934 9.21127 9.71289 11.9508 9.71289C14.6905 9.71289 16.9116 11.9339 16.9116 14.6737Z" fill="black"/>
<path d="M11.4707 12.7237V16.6237C11.4707 16.8888 11.6856 17.1037 11.9507 17.1037C12.2158 17.1037 12.4307 16.8888 12.4307 16.6237V12.7237C12.4307 12.4586 12.2158 12.2437 11.9507 12.2437C11.6856 12.2437 11.4707 12.4586 11.4707 12.7237Z" fill="black"/>
<path d="M13.9016 14.1937H10.0016C9.73645 14.1937 9.52156 14.4086 9.52156 14.6737C9.52156 14.9388 9.73645 15.1537 10.0016 15.1537H13.9016C14.1667 15.1537 14.3816 14.9388 14.3816 14.6737C14.3816 14.4086 14.1667 14.1937 13.9016 14.1937ZM10.6982 6.69693L8.81374 2.9887C8.73263 2.82904 8.84864 2.63999 9.02782 2.63999H14.9254C15.1045 2.63999 15.2204 2.82892 15.1393 2.98858L13.255 6.69695C13.1349 6.9333 13.2291 7.22224 13.4655 7.34233C13.7018 7.46242 13.9907 7.36818 14.1108 7.13184L15.9951 3.4236C16.401 2.62537 15.821 1.67999 14.9254 1.67999H9.02784C8.13234 1.67999 7.55231 2.62518 7.9579 3.42356L9.84242 7.13186C9.96251 7.36818 10.2515 7.46242 10.4878 7.34231C10.7241 7.22219 10.8184 6.93325 10.6982 6.69693H10.6982Z" fill="black"/>
<path d="M16.9929 21.3245C19.3788 21.3245 21.3129 19.3904 21.3129 17.0045V15.9931C21.3129 11.3742 17.5318 7.59312 12.9129 7.59312H11.0397C6.42079 7.59312 2.63969 11.3742 2.63969 15.9931V17.0045C2.63969 19.3903 4.57389 21.3245 6.95969 21.3245H16.9929ZM16.9929 22.2845H6.95969C4.04371 22.2845 1.67969 19.9205 1.67969 17.0045V15.9931C1.67969 10.844 5.89059 6.63312 11.0397 6.63312H12.9129C18.062 6.63312 22.2729 10.844 22.2729 15.9931V17.0045C22.2729 19.9206 19.909 22.2845 16.9929 22.2845Z" fill="black"/>
</svg>

