<svg width="25" height="24" viewBox="0 0 25 24" fill="none" xmlns="http://www.w3.org/2000/svg">
<g clip-path="url(#clip0_24_91)">
<path fill-rule="evenodd" clip-rule="evenodd" d="M22.9747 19.5H21.5V9C21.5 8.17157 20.8284 7.5 20 7.5H15.875C15.6679 7.5 15.5 7.66789 15.5 7.875V19.5H14V3.03844C14.005 2.56502 13.7921 2.1156 13.4225 1.81969C12.9126 1.42213 12.2053 1.39606 11.6675 1.755L4.1675 6.75C3.74962 7.0288 3.49905 7.49828 3.5 8.00062V19.5H2.02531C1.62324 19.4941 1.28486 19.7997 1.25 20.2003C1.23623 20.4077 1.30913 20.6115 1.4513 20.7631C1.59347 20.9147 1.79217 21.0005 2 21H23C23.2078 21.0005 23.4065 20.9147 23.5487 20.7631C23.6909 20.6115 23.7638 20.4077 23.75 20.2003C23.7151 19.7997 23.3768 19.4941 22.9747 19.5V19.5ZM7.625 17.25C7.62546 17.4578 7.53966 17.6565 7.38806 17.7987C7.23647 17.9409 7.03268 18.0138 6.82531 18C6.42434 17.9651 6.11857 17.6262 6.125 17.2237V15.7753C6.11952 15.3734 6.42493 15.0353 6.82531 15C7.03268 14.9862 7.23647 15.0591 7.38806 15.2013C7.53966 15.3435 7.62546 15.5422 7.625 15.75V17.25ZM7.625 12C7.62546 12.2078 7.53966 12.4065 7.38806 12.5487C7.23647 12.6909 7.03268 12.7638 6.82531 12.75C6.42456 12.7147 6.11903 12.376 6.125 11.9738V10.5253C6.11952 10.1234 6.42493 9.7853 6.82531 9.75C7.03268 9.73623 7.23647 9.80913 7.38806 9.9513C7.53966 10.0935 7.62546 10.2922 7.625 10.5V12ZM11.375 17.25C11.3755 17.4578 11.2897 17.6565 11.1381 17.7987C10.9865 17.9409 10.7827 18.0138 10.5753 18C10.1751 17.9652 9.86956 17.6273 9.875 17.2256V15.7753C9.87002 15.3738 10.1753 15.0362 10.5753 15.0009C10.7827 14.9872 10.9865 15.0601 11.1381 15.2022C11.2897 15.3444 11.3755 15.5431 11.375 15.7509V17.25ZM11.375 12C11.3755 12.2078 11.2897 12.4065 11.1381 12.5487C10.9865 12.6909 10.7827 12.7638 10.5753 12.75C10.1753 12.7147 9.87002 12.3772 9.875 11.9756V10.5253C9.87002 10.1238 10.1753 9.78621 10.5753 9.75094C10.7827 9.73717 10.9865 9.81006 11.1381 9.95224C11.2897 10.0944 11.3755 10.2931 11.375 10.5009V12Z" fill="#121417"/>
</g>
<defs>
<clipPath id="clip0_24_91">
<rect width="24" height="24" fill="white" transform="translate(0.5)"/>
</clipPath>
</defs>
</svg>

