<svg width="24" height="24" viewBox="0 0 24 24" fill="none" xmlns="http://www.w3.org/2000/svg">
<path fill-rule="evenodd" clip-rule="evenodd" d="M12 0C12.3978 0 12.7794 0.14048 13.0607 0.39052L23.5607 9.72387C24.1464 10.2445 24.1464 11.0888 23.5607 11.6095C22.9749 12.1301 22.0251 12.1301 21.4394 11.6095L13.5 4.55228V22.6667C13.5 23.4031 12.8285 24 12 24C11.1716 24 10.5 23.4031 10.5 22.6667V4.55228L2.56067 11.6095C1.97487 12.1301 1.02513 12.1301 0.439336 11.6095C-0.146445 11.0888 -0.146445 10.2445 0.439336 9.72387L10.9394 0.39052C11.2206 0.14048 11.6022 0 12 0Z" fill="#5ED386"/>
</svg>

