<svg width="24" height="24" viewBox="0 0 24 24" fill="none" xmlns="http://www.w3.org/2000/svg">
<g clip-path="url(#clip0_24_98)">
<path fill-rule="evenodd" clip-rule="evenodd" d="M20.25 6.75H5.25C4.83579 6.75 4.5 6.41421 4.5 6C4.5 5.58579 4.83579 5.25 5.25 5.25H18C18.4142 5.25 18.75 4.91421 18.75 4.5C18.75 4.08579 18.4142 3.75 18 3.75H5.25C4.00736 3.75 3 4.75736 3 6V18C3 19.2426 4.00736 20.25 5.25 20.25H20.25C21.0784 20.25 21.75 19.5784 21.75 18.75V8.25C21.75 7.42157 21.0784 6.75 20.25 6.75V6.75ZM20.25 18.75H5.25C4.83579 18.75 4.5 18.4142 4.5 18V8.12156C4.74082 8.20693 4.9945 8.25037 5.25 8.25H20.25V18.75ZM15.75 13.125C15.75 12.5037 16.2537 12 16.875 12C17.4963 12 18 12.5037 18 13.125C18 13.7463 17.4963 14.25 16.875 14.25C16.2537 14.25 15.75 13.7463 15.75 13.125V13.125Z" fill="#121417"/>
</g>
<defs>
<clipPath id="clip0_24_98">
<rect width="24" height="24" fill="white"/>
</clipPath>
</defs>
</svg>

