<svg width="25" height="24" viewBox="0 0 25 24" fill="none" xmlns="http://www.w3.org/2000/svg">
<path fill-rule="evenodd" clip-rule="evenodd" d="M11.3321 1.24802C12.0779 0.917327 12.9221 0.917327 13.6679 1.24802L22.2995 5.0754C24.2751 5.95141 23.6703 9 21.5209 9H3.47906C1.32967 9 0.724891 5.9514 2.70047 5.0754L11.3321 1.24802ZM12.8893 3.12765C12.6407 3.01742 12.3593 3.01742 12.1107 3.12765L3.91076 6.76352C3.81198 6.80732 3.84324 6.95494 3.95129 6.95494H21.0487C21.1568 6.95494 21.188 6.80732 21.0892 6.76352L12.8893 3.12765Z" fill="#0F0F0F"/>
<path d="M2.5 22C2.5 21.4477 2.94772 21 3.5 21H21.5C22.0523 21 22.5 21.4477 22.5 22C22.5 22.5523 22.0523 23 21.5 23H3.5C2.94772 23 2.5 22.5523 2.5 22Z" fill="#0F0F0F"/>
<path d="M11.5 19C11.5 19.5523 11.9477 20 12.5 20C13.0523 20 13.5 19.5523 13.5 19V11C13.5 10.4477 13.0523 10 12.5 10C11.9477 10 11.5 10.4477 11.5 11V19Z" fill="#0F0F0F"/>
<path d="M6.5 20C5.94772 20 5.5 19.5523 5.5 19V11C5.5 10.4477 5.94771 10 6.5 10C7.05228 10 7.5 10.4477 7.5 11V19C7.5 19.5523 7.05229 20 6.5 20Z" fill="#0F0F0F"/>
<path d="M17.5 19C17.5 19.5523 17.9477 20 18.5 20C19.0523 20 19.5 19.5523 19.5 19V11C19.5 10.4477 19.0523 10 18.5 10C17.9477 10 17.5 10.4477 17.5 11V19Z" fill="#0F0F0F"/>
</svg>

