<svg width="25" height="24" viewBox="0 0 25 24" fill="none" xmlns="http://www.w3.org/2000/svg">
<mask id="mask0_24_135" style="mask-type:luminance" maskUnits="userSpaceOnUse" x="0" y="0" width="25" height="24">
<path d="M24.5 0H0.5V24H24.5V0Z" fill="white"/>
</mask>
<g mask="url(#mask0_24_135)">
<path d="M24.5 0H0.5V24H24.5V0Z" fill="white"/>
<path d="M11 17C14.5899 17 17.5 14.0899 17.5 10.5C17.5 6.91015 14.5899 4 11 4C7.41015 4 4.5 6.91015 4.5 10.5C4.5 14.0899 7.41015 17 11 17Z" stroke="black" stroke-width="2.5" stroke-linejoin="round"/>
<path d="M20.1465 20.3536C20.3418 20.5488 20.6584 20.5488 20.8537 20.3536C21.0489 20.1583 21.0489 19.8417 20.8537 19.6464L20.1465 20.3536ZM20.8537 19.6464L15.8537 14.6464L15.1465 15.3536L20.1465 20.3536L20.8537 19.6464Z" fill="black"/>
</g>
</svg>

