<svg width="24" height="24" viewBox="0 0 24 24" fill="none" xmlns="http://www.w3.org/2000/svg">
<path fill-rule="evenodd" clip-rule="evenodd" d="M15.5923 0.390521C16.0183 -0.130174 16.709 -0.130174 17.135 0.390521L23.308 7.9353C24.1327 8.94325 23.5486 10.6667 22.3824 10.6667H1.09091C0.488422 10.6667 0 10.0697 0 9.33335C0 8.59697 0.488422 8.00001 1.09091 8.00001H20.2754L15.5923 2.27615C15.1663 1.75544 15.1663 0.911228 15.5923 0.390521ZM3.72459 16H22.9091C23.5116 16 24 15.4031 24 14.6667C24 13.9303 23.5116 13.3334 22.9091 13.3334H1.61764C0.451375 13.3334 -0.132704 15.0568 0.691975 16.0647L6.86497 23.6095C7.291 24.1302 7.98172 24.1302 8.40776 23.6095C8.83378 23.0888 8.83378 22.2446 8.40776 21.7239L3.72459 16Z" fill="#0F0F0F"/>
</svg>

